<svg id="visual" viewBox="0 0 1920 1080" width="1920" height="1080" xmlns="http://www.w3.org/2000/svg" xmlns:xlink="http://www.w3.org/1999/xlink" version="1.1"><rect x="0" y="0" width="1920" height="1080" fill="#4FACF7"></rect><path d="M0 612L274 612L274 504L549 504L549 555L823 555L823 367L1097 367L1097 540L1371 540L1371 506L1646 506L1646 627L1920 627L1920 467L1920 1081L1920 1081L1646 1081L1646 1081L1371 1081L1371 1081L1097 1081L1097 1081L823 1081L823 1081L549 1081L549 1081L274 1081L274 1081L0 1081Z" fill="#0066ff"></path><path d="M0 790L274 790L274 666L549 666L549 741L823 741L823 586L1097 586L1097 688L1371 688L1371 671L1646 671L1646 652L1920 652L1920 736L1920 1081L1920 1081L1646 1081L1646 1081L1371 1081L1371 1081L1097 1081L1097 1081L823 1081L823 1081L549 1081L549 1081L274 1081L274 1081L0 1081Z" fill="#003e8c"></path><path d="M0 922L274 922L274 777L549 777L549 969L823 969L823 890L1097 890L1097 788L1371 788L1371 965L1646 965L1646 929L1920 929L1920 935L1920 1081L1920 1081L1646 1081L1646 1081L1371 1081L1371 1081L1097 1081L1097 1081L823 1081L823 1081L549 1081L549 1081L274 1081L274 1081L0 1081Z" fill="#001122"></path></svg>